<svg width="24" height="24" viewBox="0 0 24 24" fill="none" xmlns="http://www.w3.org/2000/svg">
<path fill-rule="evenodd" clip-rule="evenodd" d="M10.4701 3.55412C10.9567 3.34566 11.4798 3.23587 12.0092 3.23112C12.5386 3.22636 13.0636 3.32674 13.5539 3.52643C14.0442 3.72611 14.49 4.02114 14.8654 4.39439C15.2408 4.76765 15.5384 5.21171 15.7409 5.70084C15.9434 6.18997 16.0468 6.71443 16.0451 7.24382C16.0434 7.77321 15.9366 8.297 15.731 8.78482C15.5253 9.27263 15.2249 9.71477 14.8471 10.0856C14.4693 10.4564 14.0216 10.7486 13.5301 10.9451C12.5547 11.3269 11.4686 11.3109 10.505 10.9005C9.54132 10.4902 8.77706 9.71828 8.37637 8.75059C7.97568 7.7829 7.97051 6.69665 8.36199 5.7252C8.75347 4.75375 9.51036 3.97459 10.4701 3.55512M12.0001 4.75012C11.337 4.75012 10.7011 5.01351 10.2323 5.48235C9.76345 5.95119 9.50006 6.58708 9.50006 7.25012C9.50006 7.91316 9.76345 8.54904 10.2323 9.01788C10.7011 9.48673 11.337 9.75012 12.0001 9.75012C12.6631 9.75012 13.299 9.48673 13.7678 9.01788C14.2367 8.54904 14.5001 7.91316 14.5001 7.25012C14.5001 6.58708 14.2367 5.95119 13.7678 5.48235C13.299 5.01351 12.6631 4.75012 12.0001 4.75012ZM5.47006 12.5551C5.95615 12.3496 6.4781 12.2424 7.00584 12.2395C7.53357 12.2367 8.05665 12.3383 8.54494 12.5385C9.03323 12.7387 9.47708 13.0335 9.8509 13.406C10.2247 13.7785 10.5212 14.2213 10.7231 14.7089C10.925 15.1965 11.0285 15.7192 11.0275 16.247C11.0265 16.7747 10.9211 17.297 10.7173 17.7838C10.5136 18.2707 10.2155 18.7124 9.84027 19.0835C9.46504 19.4546 9.0201 19.7477 8.53106 19.9461C7.55082 20.3522 6.44943 20.3522 5.46917 19.9462C4.48892 19.5401 3.71011 18.7614 3.30406 17.7811C2.89801 16.8009 2.898 15.6995 3.30401 14.7192C3.71003 13.739 4.48882 12.9602 5.46906 12.5541M7.00006 13.7501C6.33688 13.7501 5.70087 14.0136 5.23194 14.4825C4.763 14.9514 4.49956 15.5874 4.49956 16.2506C4.49956 16.9138 4.763 17.5498 5.23194 18.0187C5.70087 18.4877 6.33688 18.7511 7.00006 18.7511C7.66323 18.7511 8.29924 18.4877 8.76818 18.0187C9.23711 17.5498 9.50056 16.9138 9.50056 16.2506C9.50056 15.5874 9.23711 14.9514 8.76818 14.4825C8.29924 14.0136 7.66323 13.7501 7.00006 13.7501ZM17.0001 12.2501C15.9392 12.2501 14.9218 12.6715 14.1716 13.4217C13.4215 14.1718 13.0001 15.1893 13.0001 16.2501C13.0001 17.311 13.4215 18.3284 14.1716 19.0785C14.9218 19.8287 15.9392 20.2501 17.0001 20.2501C18.0609 20.2501 19.0783 19.8287 19.8285 19.0785C20.5786 18.3284 21.0001 17.311 21.0001 16.2501C21.0001 15.1893 20.5786 14.1718 19.8285 13.4217C19.0783 12.6715 18.0609 12.2501 17.0001 12.2501ZM16.0431 13.9401C16.6557 13.6863 17.3441 13.6863 17.9568 13.94C18.2601 14.0656 18.5358 14.2498 18.768 14.482C19.0002 14.7141 19.1844 14.9898 19.3101 15.2931C19.4357 15.5965 19.5004 15.9216 19.5004 16.25C19.5005 16.5783 19.4358 16.9035 19.3102 17.2068C19.1845 17.5102 19.0004 17.7859 18.7682 18.0181C18.536 18.2502 18.2604 18.4344 17.9571 18.5601C17.6537 18.6858 17.3286 18.7505 17.0002 18.7505C16.6719 18.7505 16.3467 18.6859 16.0433 18.5602C15.4307 18.3065 14.9439 17.8198 14.6901 17.2071C14.5644 16.9038 14.4997 16.5786 14.4997 16.2503C14.4996 15.9219 14.5643 15.5968 14.6899 15.2934C14.9437 14.6807 15.4304 14.1939 16.0431 13.9401Z" fill="white"/>
</svg>
