<svg width="20" height="21" viewBox="0 0 20 21" fill="none" xmlns="http://www.w3.org/2000/svg">
<path d="M9.99995 16.0827C13.1944 16.0827 15.8049 13.472 15.8049 10.2777C15.8049 7.08332 13.1943 4.47266 9.99995 4.47266C6.80561 4.47266 4.19495 7.08332 4.19495 10.2777C4.19495 13.472 6.80561 16.0827 9.99995 16.0827ZM9.99995 5.58349C12.5835 5.58349 14.6938 7.69505 14.6938 10.2774C14.6938 12.8609 12.5834 14.9713 9.99995 14.9713C7.41653 14.9713 5.30606 12.8597 5.30606 10.2774C5.30606 7.69382 7.41653 5.58349 9.99995 5.58349Z" fill="white"/>
<path d="M0.583847 12.2223C0.16718 12.9168 0.16718 13.8054 0.583847 14.4999L1.63962 16.3054C2.05629 16.9999 2.80607 17.4448 3.61229 17.4448H5.16829C5.58496 17.4448 5.9734 17.6672 6.19585 18.0285L6.97385 19.3892C7.39051 20.0837 8.14029 20.5285 8.94651 20.5285H11.0298C11.835 20.5285 12.613 20.0837 13.0025 19.3892L13.7805 18.0285C14.003 17.6672 14.3914 17.4448 14.8081 17.4448H16.389C17.1941 17.4448 17.9721 16.9999 18.3617 16.3054L19.4175 14.4999C19.8341 13.8054 19.8341 12.9168 19.4175 12.2223L18.6395 10.8617C18.417 10.5003 18.417 10.0565 18.6395 9.69521L19.4175 8.33454C19.8341 7.6401 19.8341 6.75143 19.4175 6.05699L18.3617 4.25143C17.945 3.55699 17.1952 3.1121 16.389 3.1121H14.833C14.4163 3.1121 14.0279 2.88966 13.8055 2.52832L13.0275 1.16765C12.6108 0.473209 11.861 0.0283203 11.0548 0.0283203H8.97146C8.16635 0.0283203 7.38835 0.473209 6.99879 1.16765L6.19476 2.50013C5.97232 2.86146 5.58387 3.0839 5.16721 3.0839H3.61121C2.8061 3.0839 2.0281 3.52879 1.63854 4.22324L0.582764 6.02879C0.166097 6.72324 0.166097 7.6119 0.582764 8.30635L1.36076 9.66701C1.5832 10.0283 1.5832 10.4721 1.36076 10.8335L0.583847 12.2223ZM1.52785 12.7779L2.30585 11.4172C2.72251 10.7228 2.72251 9.8341 2.30585 9.13965L1.52785 7.7779C1.30541 7.41657 1.30541 6.97279 1.52785 6.61146L2.58362 4.8059C2.80606 4.44457 3.19451 4.22213 3.61118 4.22213H5.16718C5.97229 4.22213 6.75029 3.77724 7.13985 3.08279L7.91785 1.72213C8.14028 1.36079 8.52874 1.13835 8.9454 1.13835H11.0287C11.4454 1.13835 11.8338 1.36079 12.0563 1.72213L12.8343 3.08279C13.251 3.77724 14.0007 4.22213 14.807 4.22213H16.389C16.8057 4.22213 17.1941 4.44456 17.4165 4.8059L18.4723 6.61146C18.6948 6.97279 18.6948 7.41657 18.4723 7.7779L17.6943 9.13857C17.2777 9.83301 17.2777 10.7217 17.6943 11.4161L18.4723 12.7768C18.6948 13.1381 18.6948 13.5819 18.4723 13.9432L17.4165 15.7488C17.1941 16.1101 16.8057 16.3326 16.389 16.3326H14.833C14.0279 16.3326 13.2499 16.7775 12.8603 17.4719L12.0823 18.8326C11.8599 19.1939 11.4714 19.4163 11.0548 19.4163H8.97143C8.55476 19.4163 8.16632 19.1939 7.94387 18.8326L7.13876 17.5001C6.7221 16.8057 5.97232 16.3608 5.1661 16.3608H3.61118C3.19451 16.3608 2.80607 16.1383 2.58362 15.777L1.52785 13.9714C1.33362 13.583 1.33362 13.1392 1.52785 12.7779Z" fill="white"/>
</svg>
