<svg width="16" height="22" viewBox="0 0 16 22" fill="none" xmlns="http://www.w3.org/2000/svg">
<g clip-path="url(#clip0_182_40)">
<path d="M13.25 9.16318V6.01318C13.25 3.11818 10.895 0.763184 8 0.763184C5.105 0.763184 2.75 3.11818 2.75 6.01318V9.16318C1.303 9.16318 0.125 10.3412 0.125 11.7882V18.6132C0.125 20.0602 1.303 21.2382 2.75 21.2382H13.25C14.697 21.2382 15.875 20.0602 15.875 18.6132V11.7882C15.875 10.3402 14.697 9.16318 13.25 9.16318ZM3.8 6.01218C3.8 3.69618 5.684 1.81218 8 1.81218C10.316 1.81218 12.2 3.69618 12.2 6.01218V9.16218H3.8V6.01218ZM14.825 18.6122C14.825 19.4812 14.119 20.1872 13.25 20.1872H2.75C1.881 20.1872 1.175 19.4812 1.175 18.6122V11.7872C1.175 10.9182 1.881 10.2122 2.75 10.2122H13.25C14.119 10.2122 14.825 10.9182 14.825 11.7872V18.6122Z" fill="white"/>
</g>
<defs>
<clipPath id="clip0_182_40">
<rect width="16" height="22" fill="white"/>
</clipPath>
</defs>
</svg>
